<svg class="logo" viewBox="0 0 170 171" xmlns="http://www.w3.org/2000/svg" xmlns:xlink="http://www.w3.org/1999/xlink">
  <g fill="none">
    <g class="text" fill="#FFF">
      <g class="title">
        <path d="M9.825 104.256c0-.658-.02-1.214-.055-1.67a5.02 5.02 0 0 0-.218-1.178 3.827 3.827 0 0 0-.436-.903 16.013 16.013 0 0 0-.656-.903 32.974 32.974 0 0 0-1.637-1.835A75.95 75.95 0 0 0 5.13 96.07a53.375 53.375 0 0 1-1.773-1.808 40.643 40.643 0 0 1-1.884-2.16C.746 91.26.318 90.394.19 89.498.064 88.603 0 87.52 0 86.24v-6.733c0-4.965 2.33-7.447 6.986-7.447 2.51 0 4.275.61 5.295 1.834 1.02 1.224 1.528 3.093 1.528 5.613v8.21H9.933v-7.664c0-1.13-.19-2.043-.573-2.737-.382-.694-1.137-1.04-2.264-1.04-1.93 0-2.893 1.076-2.893 3.23v6.68c0 .95.063 1.643.19 2.08.128.44.39.915.792 1.425 1.093 1.387 2.21 2.61 3.357 3.67 1.146 1.06 2.3 2.28 3.466 3.668.8.95 1.328 1.936 1.583 2.957.254 1.02.383 2.426.383 4.217v6.46c0 2.408-.538 4.252-1.61 5.53-1.074 1.278-2.866 1.916-5.377 1.916-2.438 0-4.21-.638-5.32-1.917C.553 114.915 0 113.07 0 110.663v-9.582h3.985v8.98c0 1.17.208 2.118.627 2.848.42.728 1.174 1.093 2.265 1.093 1.055 0 1.81-.28 2.266-.846.454-.567.682-1.396.682-2.492v-6.406z"/>
        <path d="M29.418 80.71c0-1.35-.272-2.345-.818-2.983-.546-.64-1.474-.96-2.783-.96h-2.84v15.388h2.894c1.2 0 2.093-.31 2.675-.93.582-.62.873-1.625.873-3.013v-7.5zM18.83 117.617V72.553h7.012c2.63 0 4.574.657 5.835 1.97 1.26 1.315 1.89 3.377 1.89 6.188v7.393c0 2.848-.623 4.91-1.866 6.188-1.243 1.28-3.18 1.916-5.814 1.916h-2.908v21.41H18.83zM45.738 106.227c-.474-3.87-.946-7.713-1.42-11.525a949.52 949.52 0 0 1-1.363-11.583A1612.96 1612.96 0 0 1 41.51 94.7c-.493 3.812-.994 7.656-1.503 11.525h5.73zm1.474 11.39l-.983-7.558h-6.714l-.983 7.556h-4.038l6.167-45.064h4.858l5.84 45.064h-4.148zM64.567 101.08h3.767v9.308c0 2.63-.52 4.572-1.556 5.83-1.036 1.26-2.702 1.89-4.995 1.89-4.766 0-7.15-2.537-7.15-7.612v-30.66c0-5.185 2.384-7.776 7.15-7.776 4.368 0 6.55 2.555 6.55 7.665v7.993h-3.766V79.78c0-1.204-.202-2.09-.606-2.656-.404-.565-1.138-.85-2.202-.85-1.984 0-2.976 1.17-2.976 3.506v30.662c0 2.373.992 3.56 2.976 3.56 1.028 0 1.753-.294 2.176-.876.422-.584.633-1.48.633-2.684v-9.362zM73.19 117.616V72.553h11.9v4.215h-7.75v15.77h5.456v4.216H77.34v16.754h8.023v4.108H73.19zM108.503 106.227c-.472-3.87-.947-7.713-1.42-11.525a966.675 966.675 0 0 1-1.363-11.583c-.473 3.906-.955 7.767-1.448 11.582-.49 3.812-.99 7.656-1.5 11.525h5.73zm1.474 11.39l-.983-7.558h-6.713l-.982 7.556H97.26l6.17-45.064h4.855l5.84 45.064h-4.148zM128.86 80.71c0-1.35-.272-2.345-.818-2.983-.544-.64-1.473-.96-2.785-.96h-2.837v15.388h2.893c1.202 0 2.093-.31 2.674-.93.58-.62.874-1.625.874-3.013v-7.5zm-10.588 36.906V72.553h7.013c2.63 0 4.574.657 5.834 1.97 1.26 1.315 1.89 3.377 1.89 6.188v7.393c0 2.848-.623 4.91-1.868 6.188-1.243 1.28-3.18 1.916-5.814 1.916h-2.908v21.41h-4.148zM147.8 80.71c0-1.35-.272-2.345-.82-2.983-.546-.64-1.474-.96-2.783-.96h-2.838v15.388h2.89c1.203 0 2.094-.31 2.677-.93.58-.62.873-1.625.873-3.013v-7.5zm-10.588 36.906V72.553h7.01c2.63 0 4.576.657 5.836 1.97 1.26 1.315 1.89 3.377 1.89 6.188v7.393c0 2.848-.624 4.91-1.866 6.188-1.243 1.28-3.183 1.916-5.815 1.916h-2.908v21.41h-4.148z"/>
        <path d="M165.428 104.256c0-.658-.018-1.214-.054-1.67a5.064 5.064 0 0 0-.22-1.178 3.81 3.81 0 0 0-.434-.903 16.205 16.205 0 0 0-.656-.903 33.15 33.15 0 0 0-1.637-1.835 74.21 74.21 0 0 0-1.693-1.698 54.193 54.193 0 0 1-1.774-1.808 40.836 40.836 0 0 1-1.884-2.16c-.727-.84-1.154-1.707-1.28-2.603-.13-.896-.192-1.98-.192-3.26v-6.733c0-4.965 2.33-7.447 6.986-7.447 2.51 0 4.276.61 5.294 1.834 1.018 1.224 1.527 3.093 1.527 5.613v8.21h-3.873v-7.664c0-1.13-.192-2.043-.572-2.737-.384-.694-1.14-1.04-2.267-1.04-1.927 0-2.892 1.076-2.892 3.23v6.68c0 .95.064 1.643.193 2.08.125.44.388.915.79 1.425 1.092 1.387 2.21 2.61 3.356 3.67a40.278 40.278 0 0 1 3.467 3.668c.8.95 1.326 1.936 1.58 2.957.256 1.02.384 2.426.384 4.217v6.46c0 2.408-.54 4.252-1.61 5.53-1.074 1.278-2.866 1.916-5.377 1.916-2.438 0-4.213-.638-5.32-1.917-1.11-1.276-1.666-3.12-1.666-5.528v-9.582h3.983v8.98c0 1.17.212 2.118.63 2.848.418.728 1.173 1.093 2.263 1.093 1.055 0 1.81-.28 2.267-.846.453-.567.68-1.396.68-2.492v-6.406z"/>
      </g>
      <path class="sub-text" d="M53.473 127.946c.09-.09.102-.242.013-.33-.914-.99-1.968-1.613-3.416-1.613-3.378 0-4.42 2.705-4.42 4.56 0 1.903 1.042 4.57 4.42 4.57 1.346 0 2.413-.56 3.34-1.435.09-.09.1-.24.013-.343l-.877-1.04c-.076-.103-.215-.103-.317-.026-.598.494-1.436.9-2.147.9-2.07 0-2.362-1.968-2.362-2.628 0-.66.293-2.642 2.35-2.642.673 0 1.524.458 2.057 1.004.09.088.23.088.318.012l1.028-.99zm3.815 3.632h3.29v3.212c0 .127.1.23.227.23h1.562c.127 0 .23-.103.23-.23v-8.432a.228.228 0 0 0-.23-.228h-1.562a.228.228 0 0 0-.228.228v3.327h-3.29v-3.327a.228.228 0 0 0-.228-.228H55.47a.228.228 0 0 0-.23.228v8.432c0 .127.103.23.23.23h1.587c.126 0 .228-.103.228-.23v-3.212zm11.555-5.347a.33.33 0 0 0-.61 0l-3.898 8.586c-.038.09.038.203.14.203h1.816c.14 0 .268-.09.318-.217l.635-1.587h2.616l.634 1.587c.05.127.178.216.318.216h1.816c.1 0 .177-.115.127-.204l-3.912-8.585zm-.292 3.748l.662 1.65h-1.334l.673-1.65zm8-3.62a.228.228 0 0 0-.227-.228h-1.588a.228.228 0 0 0-.228.228v8.432c0 .127.1.23.228.23h4.8c.128 0 .23-.103.23-.23v-1.435a.228.228 0 0 0-.23-.228h-2.984v-6.77zm7.29 0a.228.228 0 0 0-.228-.228h-1.588a.228.228 0 0 0-.228.228v8.432c0 .127.1.23.228.23h4.8c.127 0 .23-.103.23-.23v-1.435a.228.228 0 0 0-.23-.228H83.84v-6.77zm10.26 5.22c.128 0 .23-.102.23-.23v-1.434a.228.228 0 0 0-.23-.23h-2.983v-1.662h3.885c.127 0 .23-.102.23-.23v-1.434a.228.228 0 0 0-.23-.228h-5.69a.228.228 0 0 0-.227.228v8.432c0 .127.1.23.228.23h5.69c.126 0 .228-.103.228-.23v-1.435a.228.228 0 0 0-.228-.228h-3.885v-1.55H94.1zm4.98 3.44c.126 0 .227-.1.227-.228v-4.432l4.876 4.61a.394.394 0 0 0 .28.114c.09 0 .165-.076.165-.165v-8.56a.228.228 0 0 0-.23-.227h-1.573a.228.228 0 0 0-.23.228v4.28l-4.824-4.508a.508.508 0 0 0-.33-.127c-.1 0-.177.09-.177.19v8.597c0 .127.1.23.228.23h1.59zm13.268-3.01v.877c-.292.216-.838.37-1.27.37-2.057 0-2.35-2.058-2.35-2.72 0-.66.293-2.615 2.35-2.615.623 0 1.423.38 1.956.85.09.077.23.077.318-.012l.952-1.04c.09-.09.09-.242 0-.33-.863-.852-1.867-1.385-3.225-1.385-3.38 0-4.42 2.705-4.42 4.56 0 1.903 1.04 4.57 4.42 4.57 1.307 0 2.31-.432 3.148-1.206a.557.557 0 0 0 .165-.394v-3.162a.228.228 0 0 0-.23-.227h-3.275a.228.228 0 0 0-.228.228v1.41c0 .128.1.23.228.23h1.46zm9.156-.43c.127 0 .23-.102.23-.23v-1.434a.228.228 0 0 0-.23-.23h-2.984v-1.662h3.886c.127 0 .228-.102.228-.23v-1.434a.228.228 0 0 0-.228-.228h-5.69a.228.228 0 0 0-.228.228v8.432c0 .127.102.23.23.23h5.688c.127 0 .228-.103.228-.23v-1.435a.228.228 0 0 0-.228-.228h-3.886v-1.55h2.984zM69.443 61.415c.127 0 .23-.1.23-.228v-4.432l4.875 4.61a.394.394 0 0 0 .28.114c.088 0 .165-.077.165-.166v-8.56a.228.228 0 0 0-.23-.228H73.19a.228.228 0 0 0-.23.23v4.278l-4.825-4.508a.508.508 0 0 0-.33-.127c-.1 0-.178.088-.178.19v8.597c0 .127.102.228.23.228h1.586zm11.797-8.787a.33.33 0 0 0-.61 0l-3.898 8.584c-.038.09.038.203.14.203h1.816c.14 0 .266-.09.317-.216l.635-1.588h2.616l.635 1.587c.052.126.18.215.318.215h1.816c.102 0 .178-.114.127-.203l-3.91-8.584zm-.292 3.746l.66 1.65h-1.333l.673-1.65zm9.664-.28c-.99-.355-1.88-.596-1.93-1.142-.013-.483.482-.648 1.015-.648.712 0 1.765.38 2.324.584.128.05.255 0 .306-.114l.57-1.308a.248.248 0 0 0-.113-.318c-1.486-.685-2.654-.76-3.213-.76-1.7 0-2.933.99-2.933 2.653 0 1.83 1.613 2.324 2.895 2.743.838.267 1.524.508 1.524 1.067 0 .445-.56.762-1.22.762-.735 0-1.523-.292-2.335-.66-.114-.05-.253-.013-.304.1l-.7 1.297c-.05.113-.01.253.103.303 1.078.56 2.082.864 3.313.864 1.943 0 3.29-1.207 3.29-2.756 0-1.624-1.36-2.234-2.59-2.665zm8.33-3.466a.33.33 0 0 0-.61 0l-3.898 8.584c-.038.09.038.203.14.203h1.816c.14 0 .266-.09.317-.216l.635-1.588h2.616l.635 1.587c.05.126.178.215.317.215h1.816c.102 0 .178-.114.127-.203l-3.91-8.584zm-.292 3.746l.66 1.65h-1.333l.673-1.65z"/>
    </g>
    <g class="outline" fill="#FFF">
      <path d="M84.897 170.967c-28.663 0-55.28-15.545-69.46-40.57a1 1 0 0 1 .373-1.363.994.994 0 0 1 1.358.374c13.828 24.402 39.78 39.56 67.73 39.56 27.712 0 53.553-14.968 67.442-39.064a.99.99 0 0 1 1.36-.365 1 1 0 0 1 .364 1.364c-14.243 24.712-40.746 40.063-69.167 40.063M142.79 35.693a8.697 8.697 0 0 1-1.326 1.502 8.55 8.55 0 0 1-5.746 2.224c-4.747 0-8.608-3.876-8.608-8.638 0-1.708.503-3.296 1.358-4.638a8.675 8.675 0 0 1 1.264-1.556 8.558 8.558 0 0 1 5.986-2.443c4.747 0 8.61 3.874 8.61 8.637 0 1.824-.57 3.515-1.537 4.91m15.24 22.98a80.058 80.058 0 0 0-13.69-21.293 10.85 10.85 0 0 0 2.228-6.598c0-6.003-4.868-10.885-10.85-10.885-3.11 0-5.917 1.322-7.897 3.433a79.605 79.605 0 0 0-42.923-12.563c-31.777 0-60.52 18.886-73.224 48.113a1.002 1.002 0 0 0 .912 1.4c.385 0 .75-.225.914-.6 12.386-28.5 40.412-46.915 71.397-46.915a77.614 77.614 0 0 1 41.692 12.147 10.842 10.842 0 0 0-1.72 5.87c0 6.002 4.866 10.885 10.848 10.885 2.793 0 5.343-1.065 7.268-2.81a78.07 78.07 0 0 1 13.22 20.62.992.992 0 0 0 1.312.512.998.998 0 0 0 .51-1.317"/>
      <path d="M145.87 32.117a.995.995 0 0 1-.655-.392 1.003 1.003 0 0 1 .202-1.398l9.412-7.55a.992.992 0 0 1 1.392.203 1 1 0 0 1-.203 1.398l-9.41 7.55a.993.993 0 0 1-.74.19M143.097 24.182a.993.993 0 0 1-.69-.325 1.003 1.003 0 0 1 .063-1.412l8.618-8.45a.992.992 0 0 1 1.407.065 1 1 0 0 1-.064 1.41l-8.616 8.45a.992.992 0 0 1-.717.262M135.15 21.76a.992.992 0 0 1-.723-.242 1.003 1.003 0 0 1-.1-1.41l7.75-9.72a.992.992 0 0 1 1.404-.1 1 1 0 0 1 .103 1.408l-7.75 9.72a.992.992 0 0 1-.682.343M165.18 27.296l-20.372 9.44a1 1 0 0 1-.81-1.825l20.372-9.44a1 1 0 0 1 .81 1.825"/>
      <path d="M140.67 1.805l-9.785 21.327a.994.994 0 0 1-1.328.47 1 1 0 0 1-.47-1.333L138.875.94a.993.993 0 0 1 1.328-.47 1 1 0 0 1 .468 1.333"/>
    </g>
  </g>
</svg>
