<svg class="logo" viewBox="0 0 184 181" xmlns="http://www.w3.org/2000/svg" xmlns:xlink="http://www.w3.org/1999/xlink">
	<g class="text" fill="#FFF">
		<g class="space-apps">
			<path d="M15.8,108.3c0-0.7,0-1.2-0.1-1.7c0-0.4-0.1-0.8-0.2-1.2c-0.1-0.3-0.3-0.6-0.4-0.9c-0.2-0.3-0.4-0.6-0.7-0.9
				c-0.5-0.6-1.1-1.2-1.6-1.8c-0.6-0.6-1.1-1.1-1.7-1.7s-1.2-1.2-1.8-1.8c-0.7-0.7-1.3-1.4-1.9-2.2c-0.7-0.8-1.2-1.7-1.3-2.6
				c-0.1-0.9-0.2-2-0.2-3.3v-6.7c0-5,2.3-7.4,7-7.4c2.5,0,4.3,0.6,5.3,1.8c1,1.2,1.5,3.1,1.5,5.6v8.2h-3.9V84c0-1.1-0.2-2-0.6-2.7
				s-1.1-1-2.3-1c-1.9,0-2.9,1.1-2.9,3.2v6.7c0,0.9,0.1,1.6,0.2,2.1c0.1,0.4,0.4,0.9,0.8,1.4c1.1,1.4,2.2,2.6,3.4,3.7
				c1.1,1.1,2.3,2.3,3.5,3.7c0.8,1,1.3,1.9,1.6,3c0.3,1,0.4,2.4,0.4,4.2v6.5c0,2.4-0.5,4.3-1.6,5.5c-1.1,1.3-2.9,1.9-5.4,1.9
				c-2.4,0-4.2-0.6-5.3-1.9c-1.1-1.3-1.7-3.1-1.7-5.5v-9.6h4v9c0,1.2,0.2,2.1,0.6,2.8c0.4,0.7,1.2,1.1,2.3,1.1
				c1.1,0,1.8-0.3,2.3-0.8c0.5-0.6,0.7-1.4,0.7-2.5L15.8,108.3L15.8,108.3z"/>
			<path d="M35.4,84.7c0-1.4-0.3-2.3-0.8-3c-0.5-0.6-1.5-1-2.8-1H29v15.4h2.9c1.2,0,2.1-0.3,2.7-0.9s0.9-1.6,0.9-3
				L35.4,84.7L35.4,84.7z M24.8,121.6V76.5h7c2.6,0,4.6,0.7,5.8,2c1.3,1.3,1.9,3.4,1.9,6.2v7.4c0,2.8-0.6,4.9-1.9,6.2
				c-1.2,1.3-3.2,1.9-5.8,1.9h-2.9v21.4H24.8L24.8,121.6z M51.7,110.2c-0.5-3.9-0.9-7.7-1.4-11.5c-0.5-3.9-0.9-7.7-1.4-11.6
				c-0.5,3.9-0.9,7.7-1.4,11.6c-0.5,3.8-1,7.7-1.5,11.5H51.7L51.7,110.2z M53.2,121.6l-1-7.6h-6.7l-1,7.6h-4l6.2-45.1h4.9l5.8,45.1
				H53.2L53.2,121.6z M70.6,105.1h3.8v9.3c0,2.6-0.5,4.6-1.6,5.8c-1,1.3-2.7,1.9-5,1.9c-4.8,0-7.1-2.5-7.1-7.6V83.8
				c0-5.2,2.4-7.8,7.1-7.8c4.4,0,6.6,2.6,6.6,7.7v8h-3.8v-7.9c0-1.2-0.2-2.1-0.6-2.7s-1.1-0.9-2.2-0.9c-2,0-3,1.2-3,3.5v30.7
				c0,2.4,1,3.6,3,3.6c1,0,1.8-0.3,2.2-0.9c0.4-0.6,0.6-1.5,0.6-2.7V105.1L70.6,105.1z M79.2,121.6V76.5h11.9v4.2h-7.8v15.8h5.5v4.2
				h-5.5v16.8h8v4.1H79.2L79.2,121.6z M114.5,110.2c-0.5-3.9-0.9-7.7-1.4-11.5c-0.5-3.9-0.9-7.7-1.4-11.6c-0.5,3.9-1,7.8-1.4,11.6
				c-0.5,3.8-1,7.7-1.5,11.5H114.5L114.5,110.2z M116,121.6l-1-7.6h-6.7l-1,7.6h-4l6.2-45.1h4.9l5.8,45.1H116L116,121.6z
				 M134.9,84.7c0-1.4-0.3-2.3-0.8-3c-0.5-0.6-1.5-1-2.8-1h-2.8v15.4h2.9c1.2,0,2.1-0.3,2.7-0.9s0.9-1.6,0.9-3L134.9,84.7
				L134.9,84.7z M124.3,121.6V76.5h7c2.6,0,4.6,0.7,5.8,2c1.3,1.3,1.9,3.4,1.9,6.2v7.4c0,2.8-0.6,4.9-1.9,6.2
				c-1.2,1.3-3.2,1.9-5.8,1.9h-2.9v21.4H124.3L124.3,121.6z M153.8,84.7c0-1.4-0.3-2.3-0.8-3c-0.5-0.6-1.5-1-2.8-1h-2.8v15.4h2.9
				c1.2,0,2.1-0.3,2.7-0.9c0.6-0.6,0.9-1.6,0.9-3L153.8,84.7L153.8,84.7z M143.2,121.6V76.5h7c2.6,0,4.6,0.7,5.8,2
				c1.3,1.3,1.9,3.4,1.9,6.2v7.4c0,2.8-0.6,4.9-1.9,6.2c-1.2,1.3-3.2,1.9-5.8,1.9h-2.9v21.4H143.2L143.2,121.6z"/>
			<path d="M171.4,108.3c0-0.7,0-1.2-0.1-1.7c0-0.4-0.1-0.8-0.2-1.2c-0.1-0.3-0.3-0.6-0.4-0.9c-0.2-0.3-0.4-0.6-0.7-0.9
				c-0.5-0.6-1.1-1.2-1.6-1.8c-0.6-0.6-1.1-1.1-1.7-1.7c-0.6-0.6-1.2-1.2-1.8-1.8c-0.7-0.7-1.3-1.4-1.9-2.2
				c-0.7-0.8-1.2-1.7-1.3-2.6s-0.2-2-0.2-3.3v-6.7c0-5,2.3-7.4,7-7.4c2.5,0,4.3,0.6,5.3,1.8s1.5,3.1,1.5,5.6v8.2h-3.9V84
				c0-1.1-0.2-2-0.6-2.7c-0.4-0.7-1.1-1-2.3-1c-1.9,0-2.9,1.1-2.9,3.2v6.7c0,1,0.1,1.6,0.2,2.1c0.1,0.4,0.4,0.9,0.8,1.4
				c1.1,1.4,2.2,2.6,3.4,3.7s2.4,2.4,3.5,3.7c0.8,0.9,1.3,1.9,1.6,3c0.3,1,0.4,2.4,0.4,4.2v6.5c0,2.4-0.5,4.3-1.6,5.5
				c-1.1,1.3-2.9,1.9-5.4,1.9c-2.4,0-4.2-0.6-5.3-1.9s-1.7-3.1-1.7-5.5v-9.6h4v9c0,1.2,0.2,2.1,0.6,2.8c0.4,0.7,1.2,1.1,2.3,1.1
				s1.8-0.3,2.3-0.8c0.5-0.6,0.7-1.4,0.7-2.5L171.4,108.3L171.4,108.3z"/>
		</g>
		<g class="exeter">
			<path d="M68.3,137.8h5.5v1.6h-3.7v1.8h3.3v1.6h-3.3v1.9h3.7v1.6h-5.5V137.8z"/>
			<path d="M77.7,142l-2.6-4.2h2.2l1.4,2.4l0.3,0.8l0.3-0.8l1.5-2.4h2l-2.7,4.1l2.8,4.4h-2.1l-1.6-2.6l-0.4-0.9
				l-0.4,0.9l-1.6,2.6h-2L77.7,142z"/>
			<path d="M84.1,137.8h5.5v1.6h-3.7v1.8h3.3v1.6h-3.3v1.9h3.7v1.6h-5.5V137.8z"/>
			<path d="M97.8,139.4h-2.7v6.9h-1.8v-6.9h-2.7v-1.6h7.2V139.4z"/>
			<path d="M99.1,137.8h5.5v1.6h-3.7v1.8h3.3v1.6h-3.3v1.9h3.7v1.6h-5.5V137.8z"/>
			<path d="M106.2,137.9c0.2,0,0.4-0.1,0.6-0.1s0.5-0.1,0.7-0.1c0.2,0,0.5,0,0.7,0c0.2,0,0.4,0,0.6,0
				c0.4,0,0.9,0,1.3,0.1c0.4,0.1,0.8,0.2,1.1,0.4c0.3,0.2,0.6,0.4,0.8,0.7s0.3,0.7,0.3,1.2c0,0.7-0.2,1.3-0.5,1.7s-0.8,0.8-1.4,0.9
				l0.6,0.4l2.1,3.2h-2.1L109,143l-0.9-0.1v3.4h-1.8V137.9z M109,139.3c-0.2,0-0.4,0-0.5,0c-0.2,0-0.3,0-0.4,0v2.3h0.8
				c0.5,0,0.9-0.1,1.2-0.3c0.3-0.2,0.4-0.5,0.4-1c0-0.4-0.1-0.6-0.4-0.8C109.8,139.4,109.5,139.3,109,139.3z"/>
		</g>
		<g class="nasa">
			<path d="M75.4,65.4c0.1,0,0.2-0.1,0.2-0.2v-4.4l4.9,4.6c0.1,0.1,0.2,0.1,0.3,0.1c0.1,0,0.2-0.1,0.2-0.2v-8.6
				c0-0.1-0.1-0.2-0.2-0.2l0,0h-1.6c-0.1,0-0.2,0.1-0.2,0.2l0,0V61l-4.8-4.5c-0.1-0.1-0.2-0.1-0.3-0.1c-0.1,0-0.2,0.1-0.2,0.2v8.6
				c0,0.1,0.1,0.2,0.2,0.2H75.4L75.4,65.4z M87.2,56.6c-0.1-0.2-0.3-0.2-0.4-0.2s-0.1,0.1-0.2,0.2l-3.9,8.6c0,0.1,0,0.2,0.1,0.2h1.8
				c0.1,0,0.3-0.1,0.3-0.2l0.6-1.6h2.6l0.6,1.6c0.1,0.1,0.2,0.2,0.3,0.2h1.8c0.1,0,0.2-0.1,0.1-0.2L87.2,56.6L87.2,56.6z M86.9,60.4
				l0.7,1.7h-1.3L86.9,60.4z M96.6,60.1c-1-0.4-1.9-0.6-1.9-1.1s0.5-0.6,1-0.6c0.7,0,1.8,0.4,2.3,0.6c0.1,0.1,0.3,0,0.3-0.1l0.6-1.3
				c0.1-0.1,0-0.3-0.1-0.3c-1.5-0.7-2.7-0.8-3.2-0.8c-1.7,0-2.9,1-2.9,2.7c0,1.8,1.6,2.3,2.9,2.7c0.8,0.3,1.5,0.5,1.5,1.1
				c0,0.4-0.6,0.8-1.2,0.8c-0.7,0-1.5-0.3-2.3-0.7c-0.1,0-0.3,0-0.3,0.1l-0.7,1.3c0,0.1,0,0.3,0.1,0.3c1.1,0.6,2.1,0.9,3.3,0.9
				c1.9,0,3.3-1.2,3.3-2.8C99.2,61.1,97.8,60.5,96.6,60.1L96.6,60.1z M104.9,56.6c-0.1-0.2-0.3-0.2-0.4-0.2s-0.1,0.1-0.2,0.2
				l-3.9,8.6c0,0.1,0,0.2,0.1,0.2h1.8c0.1,0,0.3-0.1,0.3-0.2l0.6-1.6h2.6l0.6,1.6c0,0.1,0.2,0.2,0.3,0.2h1.8c0.1,0,0.2-0.1,0.1-0.2
				L104.9,56.6L104.9,56.6z M104.6,60.4l0.7,1.7H104L104.6,60.4z"/>
		</g>
	</g>

	<g class="outline" fill="#FFF">
		<path d="M90.9,175c-28.7,0-55.3-15.5-69.5-40.6c-0.3-0.5-0.1-1.1,0.4-1.4s1.1-0.1,1.4,0.4l0,0
			C37,157.8,63,173,90.9,173c27.7,0,53.6-15,67.4-39.1c0.3-0.5,0.9-0.6,1.4-0.4l0,0c0.5,0.3,0.6,0.9,0.4,1.4
			C145.8,159.6,119.3,175,90.9,175 M148.8,39.7c-0.4,0.6-0.8,1.1-1.3,1.5c-1.6,1.4-3.6,2.2-5.7,2.2c-4.7,0-8.6-3.9-8.6-8.6
			c0-1.7,0.5-3.3,1.4-4.6c0.4-0.6,0.8-1.1,1.3-1.6c1.6-1.6,3.7-2.4,6-2.4c4.7,0,8.6,3.9,8.6,8.6C150.3,36.6,149.8,38.3,148.8,39.7
			 M164,62.7c-3.4-7.8-8-15-13.7-21.3c1.4-1.9,2.2-4.2,2.2-6.6c0-6-4.9-10.9-10.8-10.9c-3.1,0-5.9,1.3-7.9,3.4
			c-12.8-8.2-27.7-12.6-42.9-12.6c-31.8,0-60.5,18.9-73.2,48.1c-0.2,0.5,0,1.1,0.5,1.3c0.1,0.1,0.3,0.1,0.4,0.1
			c0.4,0,0.8-0.2,0.9-0.6c12.4-28.5,40.4-46.9,71.4-46.9c14.8,0,29.2,4.2,41.7,12.1c-1.1,1.8-1.7,3.8-1.7,5.9
			c0,6,4.9,10.9,10.8,10.9c2.8,0,5.3-1.1,7.3-2.8c5.5,6.1,9.9,13.1,13.2,20.6c0.2,0.5,0.8,0.7,1.3,0.5l0,0
			C164,63.8,164.3,63.2,164,62.7L164,62.7"/>
		<path d="M151.9,36.1c-0.3,0-0.5-0.2-0.7-0.4c-0.3-0.4-0.2-1.1,0.2-1.4l9.4-7.5c0.4-0.3,1.1-0.2,1.4,0.2l0,0
			c0.3,0.4,0.2,1.1-0.2,1.4l-9.4,7.6C152.4,36.1,152.1,36.2,151.9,36.1 M149.1,28.2c-0.3,0-0.5-0.1-0.7-0.3c-0.4-0.4-0.3-1,0.1-1.4
			l8.6-8.4c0.4-0.4,1-0.3,1.4,0.1l0,0c0.4,0.4,0.3,1-0.1,1.4l-8.6,8.4C149.6,28.1,149.4,28.2,149.1,28.2 M141.1,25.8
			c-0.3,0-0.5-0.1-0.7-0.2c-0.4-0.4-0.5-1-0.1-1.4l7.8-9.7c0.4-0.4,1-0.5,1.4-0.1l0,0c0.4,0.4,0.5,1,0.1,1.4l-7.8,9.7
			C141.7,25.6,141.4,25.7,141.1,25.8 M171.2,31.3l-20.4,9.4c-0.5,0.2-1.1-0.1-1.3-0.6s0-1,0.5-1.2l20.4-9.4c0.5-0.2,1.1,0.1,1.3,0.6
			C171.8,30.5,171.6,31.1,171.2,31.3"/>
		<path d="M146.7,5.8l-9.8,21.3c-0.2,0.5-0.8,0.7-1.3,0.5l0,0c-0.5-0.2-0.7-0.8-0.5-1.3L144.9,5
			c0.2-0.5,0.8-0.7,1.3-0.5l0,0C146.7,4.7,146.9,5.3,146.7,5.8"/>
	</g>
</svg>
